<svg xmlns="http://www.w3.org/2000/svg" viewBox="0 0 720 440" fill="none">
  <g stroke="#d8eeb5" stroke-width="1.4" opacity=".22">
    <path d="M735 31C624-19 507-10 451 49c-61 65-28 145-92 194-58 45-153 6-210 55-37 33-42 87-35 157"/>
    <path d="M744 59C641 9 533 13 482 67c-57 60-29 143-95 197-60 50-151 14-202 58-35 30-42 77-36 132"/>
    <path d="M747 88C653 40 557 37 511 85c-52 55-29 142-96 201-61 54-147 23-194 63-33 28-41 68-37 105"/>
    <path d="M751 116C665 73 581 61 539 104c-47 49-28 138-96 203-63 58-143 31-186 68-29 25-39 57-38 82"/>
    <path d="M756 144C678 106 604 84 566 122c-43 43-29 135-97 204-64 64-139 40-179 73-27 23-37 45-36 60"/>
    <path d="M760 172c-70-34-130-65-164-31-39 38-30 131-98 205-66 70-136 49-172 79-23 19-32 30-35 39"/>
    <path d="M764 200c-62-29-107-70-138-41-35 33-30 128-99 207-67 75-132 57-165 85"/>
    <path d="M768 229c-54-25-85-75-112-51-30 27-31 125-101 208-68 80-129 66-159 92"/>
    <path d="M769 257c-46-20-60-78-85-60-27 21-32 121-101 209-70 87-125 74-151 97"/>
  </g>
  <g stroke="#e9c689" opacity=".4">
    <circle cx="447" cy="119" r="4" fill="#e9c689"/>
    <circle cx="583" cy="204" r="4" fill="#e9c689"/>
    <path d="m447 119 136 85" stroke-dasharray="3 6"/>
  </g>
</svg>
